<?xml version="1.0" encoding="UTF-8"?>
<svg id="Capa_1" data-name="Capa 1" xmlns="http://www.w3.org/2000/svg" viewBox="0 0 911.29 911.29">
  <defs>
    <style>
      .cls-1 {
        fill: #fff;
      }

      .cls-1, .cls-2 {
        stroke-width: 0px;
      }

      .cls-2 {
        fill: #d97de4;
      }
    </style>
  </defs>
  <circle class="cls-2" cx="174.46" cy="174.46" r="174.46"/>
  <path class="cls-1" d="m175.25,270.81c-53.2,0-96.48-43.28-96.48-96.48s43.28-96.47,96.48-96.47,96.48,43.28,96.48,96.47-43.28,96.48-96.48,96.48Zm0-188.25c-50.6,0-91.77,41.17-91.77,91.77s41.17,91.77,91.77,91.77,91.77-41.17,91.77-91.77-41.17-91.77-91.77-91.77Z"/>
  <path class="cls-1" d="m174.46,281.55c-59.05,0-107.09-48.04-107.09-107.09s48.04-107.09,107.09-107.09,107.09,48.04,107.09,107.09-48.04,107.09-107.09,107.09Zm0-209.48c-56.46,0-102.39,45.93-102.39,102.39s45.93,102.39,102.39,102.39,102.39-45.93,102.39-102.39-45.93-102.39-102.39-102.39Z"/>
  <path class="cls-1" d="m237.38,119.63c-10.02-11.33-28.55-13.61-42.96-4.02-6.88-2.33-24.38-7.17-41.88.75-14.4,6.51-26.5,20.63-23.93,25.02,1.23,2.1,6.39,2.97,23.75-2.52,0,0-10.72,64.7-11.53,66.52s-2.63,4.65-2.83,6.27.81,4.65,9.3,2.63c8.49-2.02,7.89-9.5,7.89-9.5,0,0,12.13-64.7,11.73-72.19-.1-1.88-.63-3.1-1.53-3.8-2.55-1.98-7.17,1.46-15.86,4.81-3.14,1.21-13,5.02-14.02,3.36-.97-1.6,5.93-8.79,14.06-13.14,7.3-3.91,22.49-9.06,32.31-3.56,15.93,8.93,12.93,49.71-2.63,77.65-3.57,6.41-20.02,35.95-41.25,33.57-9.69-1.09-19.18-8.7-22.04-18.4-4.46-15.16,8.12-32.54,16.95-33.06.85-.05,3.66-.13,5.39,1.66,2.61,2.71,1.45,8.36,2.85,8.58.15.02.27-.03.37-.07,1.99-.83,2.56-10.35-1.82-14.43-4.29-4-12-1.52-13.8-.94-12.03,3.87-22.28,18.35-21.07,33.39.11,1.3,1.17,12.46,9.91,20.57,16.07,14.9,44.68,5.52,44.68,5.52,58.03,10.31,73.6-24.87,74.21-41.05.61-16.18-14.36-21.13-14.36-21.13,2.24-.6,14.93-4.2,21.52-16.79,5.68-10.86,5.42-25.7-3.43-35.7Zm-43.33,107.72c-11.85,5.33-23.32,3.55-28.81,2.27,5.07-2.41,10.86-5.84,16.6-10.76,17.95-15.39,23.74-35.36,25.72-44.41,4,1.84,9.28,5.15,11.7,10.87,5.88,13.87-8.26,34.4-25.21,42.02Zm33.07-86.77c-1.67,22.14-17.44,26.99-17.44,26.99,6.98-31.7-9.25-47.62-9.25-47.62,0,0,28.36-1.52,26.69,20.62Z"/>
  <g>
    <path class="cls-1" d="m55.36,229.06l-26.87,8.89-1.83-5.52c-1.32-3.98-1.95-6.98-1.9-8.99.06-2.88.97-5.43,2.75-7.63,1.77-2.2,4.22-3.82,7.33-4.85,2.69-.89,5.25-1.1,7.68-.62,2.43.47,4.43,1.47,6.02,2.99,1.58,1.52,2.92,3.94,4.02,7.26l2.8,8.47Zm-3.38-1.71l-1.02-3.08c-1.22-3.68-2.29-6.16-3.23-7.43-1.32-1.79-3.02-2.97-5.11-3.55-2.09-.58-4.37-.46-6.84.35-2.59.86-4.6,2.21-6.03,4.06-1.43,1.85-2.11,4-2.06,6.45.04,1.84.69,4.67,1.96,8.49l.62,1.88,21.7-7.18Z"/>
    <path class="cls-1" d="m19.84,207.41l-.49-2.76,27.87-4.94.49,2.76-27.87,4.94Z"/>
    <path class="cls-1" d="m17.31,183.81l27.85-14.01.1,3.03-9.16,4.72.4,12.08,9.45,4.06.1,3.13-28.73-12.31-.02-.69Zm6.02.15l10.4,4.46-.32-9.58-10.08,5.12Z"/>
    <path class="cls-1" d="m45.64,166.84l-27.83-5.18.11-.6,24.75-14.38-21.33-3.97.51-2.72,27.83,5.18-.12.62-24.46,14.28,21.07,3.92-.53,2.85Z"/>
    <path class="cls-1" d="m29.73,118.3l31.17-.9-1.19,2.78-10.3.4-4.75,11.11,6.85,7.68-1.23,2.88-20.82-23.31.27-.63Zm5.39,2.69l7.53,8.45,3.77-8.82-11.3.37Z"/>
    <path class="cls-1" d="m54.3,78.63l3.81-4.01c1.53-1.61,2.9-2.67,4.11-3.17,1.21-.5,2.45-.62,3.73-.37,1.28.26,2.4.85,3.38,1.78.91.87,1.53,1.87,1.86,3.02.33,1.15.32,2.37-.02,3.67,1.37-.71,2.56-1.12,3.59-1.23,1.03-.11,2.04.01,3.04.35.99.34,1.9.89,2.71,1.66,1.65,1.56,2.47,3.48,2.48,5.76,0,2.28-.94,4.42-2.85,6.43l-5.3,5.59-20.53-19.48Zm3.9-.09l6.58,6.24,1.1-1.16c1.34-1.41,2.2-2.58,2.56-3.5s.45-1.84.24-2.77c-.2-.93-.66-1.73-1.35-2.39-.94-.89-1.99-1.26-3.14-1.12-1.15.14-2.41.93-3.76,2.35l-2.24,2.36Zm8.64,8.2l7.87,7.47,2.39-2.52c1.41-1.49,2.3-2.72,2.66-3.69.36-.97.43-1.96.21-2.97-.22-1.01-.7-1.86-1.43-2.55-.91-.86-1.99-1.32-3.23-1.38-1.24-.05-2.48.32-3.71,1.11-.82.53-2.05,1.66-3.68,3.38l-1.09,1.15Z"/>
    <path class="cls-1" d="m72.94,60.25l4.48-3.34c2.5-1.86,4.27-3.02,5.31-3.47,1.57-.69,3.14-.83,4.74-.44,1.59.39,2.94,1.33,4.05,2.81.92,1.24,1.44,2.54,1.57,3.9.12,1.37-.17,2.69-.89,3.96-.71,1.28-2.01,2.62-3.89,4.04l15.94,4.51-2.78,2.07-15.94-4.51-1.27.95,7.85,10.54-2.25,1.68-16.91-22.7Zm3.9.55l5.75,7.71,3.9-2.86c1.5-1.12,2.5-2.09,3.01-2.91.5-.82.72-1.7.66-2.64-.07-.93-.39-1.79-.98-2.57-.57-.76-1.29-1.3-2.16-1.62-.87-.32-1.74-.36-2.6-.14-.86.23-2.07.92-3.61,2.06l-3.97,2.96Z"/>
    <path class="cls-1" d="m106.06,39.38l23.99,19.92-2.73,1.3-7.99-6.51-10.91,5.2.06,10.29-2.82,1.35-.22-31.25.62-.3Zm2.27,5.58l.07,11.32,8.66-4.13-8.73-7.19Z"/>
    <path class="cls-1" d="m132.98,58.56l-6.44-27.56.59-.14,23.12,16.88-4.94-21.13,2.69-.63,6.44,27.56-.61.14-22.91-16.66,4.88,20.87-2.82.66Z"/>
    <path class="cls-1" d="m159.81,52.96l-.67-28.3,5.81-.14c4.19-.1,7.25.17,9.16.81,2.74.9,4.91,2.51,6.5,4.85,1.59,2.34,2.42,5.15,2.5,8.43.07,2.83-.48,5.34-1.64,7.53-1.16,2.18-2.7,3.81-4.61,4.88-1.91,1.07-4.62,1.65-8.11,1.73l-8.92.21Zm2.62-2.74l3.24-.08c3.88-.09,6.56-.4,8.05-.92,2.09-.74,3.72-2.03,4.89-3.86,1.17-1.83,1.72-4.04,1.66-6.65-.06-2.73-.77-5.05-2.13-6.95-1.35-1.9-3.21-3.19-5.57-3.85-1.77-.5-4.66-.7-8.69-.6l-1.98.05.54,22.85Z"/>
    <path class="cls-1" d="m217.15,30.43l5.27,1.84c3.02,1.06,5.02,1.9,5.98,2.54,1.38.9,2.35,2.11,2.9,3.61.55,1.5.52,3.14-.1,4.91-.62,1.78-1.6,3.09-2.94,3.91-1.34.83-2.9,1.16-4.69.98-1.3-.13-3.6-.77-6.89-1.92l-1.89-.66-4.34,12.42-2.65-.92,9.34-26.72Zm1.73,3.54l-3.17,9.06,4.46,1.62c1.81.63,3.2.93,4.15.89.96-.04,1.8-.35,2.54-.92.74-.58,1.27-1.32,1.59-2.24.31-.89.36-1.8.14-2.71-.22-.91-.67-1.66-1.34-2.25-.68-.59-1.91-1.2-3.7-1.82l-4.68-1.64Z"/>
    <path class="cls-1" d="m228.39,58.99l2.78-.14c0,3.54.96,5.83,2.9,6.88.83.45,1.71.67,2.65.67.94,0,1.77-.22,2.51-.67.73-.45,1.3-1.04,1.69-1.77.45-.83.61-1.8.49-2.91-.17-1.52-.87-3.62-2.07-6.28-1.21-2.68-1.88-4.51-2.01-5.48-.24-1.65,0-3.15.75-4.52.59-1.08,1.38-1.93,2.37-2.55,1-.61,2.1-.92,3.31-.93,1.21,0,2.36.28,3.46.87,1.16.63,2.09,1.51,2.79,2.63.7,1.13,1.19,2.78,1.48,4.94l-2.85.45c-.26-1.74-.61-2.99-1.05-3.74s-1.05-1.33-1.82-1.75c-1-.54-1.97-.67-2.94-.4-.96.27-1.68.85-2.16,1.74-.29.54-.46,1.13-.51,1.76-.05.63.06,1.4.33,2.32.15.49.77,1.89,1.84,4.21,1.28,2.74,1.98,4.95,2.1,6.62.12,1.67-.15,3.13-.83,4.38-.98,1.81-2.5,3.01-4.58,3.61s-4.09.37-6.04-.68c-1.5-.81-2.64-1.95-3.42-3.41-.78-1.47-1.18-3.42-1.18-5.88Z"/>
    <path class="cls-1" d="m260.29,50.85l2.31,1.58-15.99,23.36-2.31-1.58,15.99-23.36Z"/>
    <path class="cls-1" d="m286.2,79.5l-2.79-.26c.2-2-.04-3.89-.73-5.66-.69-1.77-1.78-3.36-3.27-4.75-1.64-1.53-3.52-2.54-5.65-3.05-2.13-.51-4.21-.45-6.22.17-2.01.62-3.8,1.77-5.36,3.44-2.35,2.52-3.46,5.43-3.32,8.72.14,3.29,1.52,6.15,4.13,8.59,2.87,2.68,6.33,3.79,10.39,3.32l.46,2.75c-2.25.36-4.47.18-6.67-.53-2.2-.71-4.24-1.94-6.13-3.71-3.59-3.35-5.29-7.19-5.12-11.54.16-3.66,1.59-6.93,4.27-9.8,2.83-3.03,6.26-4.6,10.29-4.7,4.04-.1,7.64,1.32,10.81,4.28,1.91,1.79,3.29,3.78,4.12,5.99.83,2.2,1.09,4.46.79,6.75Z"/>
    <path class="cls-1" d="m304.71,94.94c2.31,3.57,3.04,7.33,2.2,11.29-.85,3.96-3.02,7.07-6.53,9.35-3.48,2.25-7.2,2.96-11.18,2.14-3.98-.83-7.08-2.97-9.31-6.42-2.26-3.49-2.96-7.22-2.11-11.18.86-3.96,3-7.06,6.42-9.27,2.28-1.48,4.75-2.3,7.41-2.47,2.66-.17,5.15.34,7.48,1.51,2.33,1.18,4.2,2.86,5.63,5.06Zm-2.24,1.6c-1.13-1.74-2.66-3.1-4.58-4.06-1.93-.97-3.95-1.39-6.07-1.26-2.12.13-4.13.81-6.04,2.05-2.82,1.83-4.58,4.34-5.27,7.54-.69,3.2-.15,6.17,1.63,8.9,1.18,1.83,2.73,3.23,4.63,4.21s3.91,1.4,6.03,1.26c2.12-.13,4.12-.81,6.02-2.04,1.89-1.22,3.31-2.76,4.27-4.62s1.39-3.88,1.28-6.05c-.11-2.17-.74-4.15-1.89-5.92Zm9.32-4.37l2.23,3.44-8.03-1.5-1.43-2.21,7.23.27Z"/>
    <path class="cls-1" d="m316,117.12l1.03,2.61-23.77,9.44,3.98,10.03-2.54,1.01-5.02-12.64,26.31-10.45Z"/>
    <path class="cls-1" d="m327.06,151.03c.76,4.18,0,7.93-2.31,11.26-2.3,3.33-5.51,5.37-9.62,6.12-4.08.74-7.79-.03-11.14-2.33-3.35-2.29-5.4-5.46-6.13-9.5-.75-4.09.04-7.8,2.35-11.14,2.31-3.33,5.48-5.36,9.49-6.09,2.68-.49,5.27-.3,7.79.57,2.52.87,4.63,2.29,6.32,4.27s2.78,4.26,3.25,6.84Zm-2.68.61c-.37-2.04-1.26-3.88-2.67-5.51-1.41-1.63-3.11-2.8-5.12-3.49-2.01-.7-4.13-.84-6.36-.43-3.31.6-5.9,2.25-7.76,4.94-1.87,2.69-2.51,5.64-1.92,8.85.39,2.14,1.28,4.03,2.66,5.66s3.07,2.79,5.08,3.48c2.01.69,4.12.83,6.34.43,2.21-.4,4.12-1.28,5.72-2.62,1.6-1.35,2.77-3.04,3.51-5.09.74-2.05.91-4.11.53-6.19Z"/>
    <path class="cls-1" d="m322.71,203.76l-1.91-2.33c1.66-1.44,2.97-3.06,3.91-4.86.94-1.8,1.48-3.58,1.61-5.34.16-2.19-.22-4.32-1.16-6.39-.94-2.07-2.3-3.71-4.08-4.94-1.78-1.23-3.71-1.92-5.78-2.08-2.12-.16-4.18.25-6.18,1.24-2,.98-3.62,2.43-4.86,4.34-1.24,1.91-1.95,4.05-2.13,6.42-.22,2.88.42,5.37,1.91,7.49,1.49,2.11,3.52,3.45,6.1,4.02l.67-8.92,2.72.2-.91,12.06c-4.36-.35-7.73-1.9-10.1-4.63-2.37-2.74-3.4-6.23-3.08-10.49.39-5.17,2.48-9.13,6.26-11.88,2.91-2.11,6.16-3.04,9.76-2.76,2.67.2,5.11,1.05,7.31,2.56,2.2,1.51,3.87,3.47,4.99,5.88,1.12,2.42,1.58,5.09,1.36,8.02-.18,2.37-.78,4.57-1.8,6.6-1.02,2.03-2.56,3.96-4.61,5.81Z"/>
    <path class="cls-1" d="m321.26,226.97l-30.96,3.7.94-2.88,10.22-1.32,3.73-11.49-7.51-7.03.97-2.97,22.82,21.35-.21.65Zm-5.61-2.2l-8.26-7.74-2.96,9.12,11.22-1.38Z"/>
  </g>
  <g>
    <path class="cls-1" d="m93.71,286.42l-1.15-.04c0-.82-.19-1.58-.54-2.28-.36-.7-.87-1.32-1.54-1.85-.73-.58-1.55-.95-2.44-1.11-.89-.16-1.74-.09-2.53.21-.79.3-1.47.8-2.04,1.52-.85,1.08-1.17,2.28-.97,3.61.2,1.33.89,2.45,2.06,3.38,1.29,1.02,2.75,1.39,4.38,1.11l.31,1.1c-.9.2-1.82.18-2.74-.06s-1.81-.69-2.66-1.36c-1.61-1.27-2.47-2.79-2.59-4.55-.09-1.48.34-2.84,1.31-4.07,1.02-1.29,2.35-2,3.99-2.14,1.64-.14,3.17.36,4.6,1.48.86.68,1.51,1.46,1.94,2.33s.64,1.78.62,2.72Z"/>
    <path class="cls-1" d="m96.7,285.89l1.95,1.28c1.09.71,1.8,1.24,2.13,1.58.5.51.79,1.1.88,1.75.09.66-.07,1.3-.47,1.91-.34.51-.76.88-1.26,1.1s-1.06.28-1.65.17c-.6-.11-1.31-.43-2.13-.97l.66,6.68-1.21-.8-.66-6.68-.55-.36-2.87,4.36-.98-.64,6.17-9.4Zm.38,1.56l-2.1,3.2,1.68,1.12c.65.43,1.18.69,1.57.77s.76.06,1.11-.09c.35-.15.63-.38.84-.71.21-.31.31-.66.3-1.03,0-.38-.12-.71-.34-1.01-.22-.3-.66-.67-1.33-1.11l-1.73-1.14Z"/>
    <path class="cls-1" d="m104.73,291.03l5.86,3.29-.54.96-4.84-2.71-1.72,3.07,4.8,2.69-.54.96-4.8-2.69-2.16,3.85,4.8,2.69-.54.96-5.82-3.26,5.5-9.81Z"/>
    <path class="cls-1" d="m121.11,301.55l-1.12.23c-.2-.79-.56-1.48-1.07-2.08-.51-.6-1.16-1.07-1.94-1.43-.85-.39-1.73-.55-2.63-.49-.9.06-1.71.33-2.41.81-.7.48-1.24,1.13-1.62,1.96-.57,1.25-.6,2.49-.09,3.73.51,1.24,1.45,2.17,2.81,2.79,1.49.68,3,.69,4.52.03l.56,1c-.83.41-1.72.61-2.68.6s-1.93-.24-2.91-.68c-1.87-.85-3.07-2.12-3.6-3.8-.45-1.42-.34-2.84.31-4.26.68-1.5,1.81-2.51,3.37-3.03,1.56-.52,3.17-.41,4.82.34,1,.46,1.81,1.05,2.44,1.8.63.74,1.05,1.57,1.25,2.49Z"/>
    <path class="cls-1" d="m123.79,300.24l1.09.42-4.01,10.51-1.09-.42,4.01-10.51Z"/>
    <path class="cls-1" d="m123.28,312.21l4.88-10.27.18.06,1.87,10.22,7.2-7.45.18.05-1.66,11.25-1.1-.33,1.23-8.03-6.31,6.49-.29-.09-1.65-8.97-3.46,7.42-1.08-.33Z"/>
    <path class="cls-1" d="m141.05,305.58l1.14.26-2.53,10.96-1.14-.26,2.53-10.96Z"/>
    <path class="cls-1" d="m144.62,306.4l6.61,1.21-.2,1.08-5.46-1-.63,3.47,5.41.99-.2,1.08-5.41-.99-.79,4.35,5.41.99-.2,1.08-6.56-1.2,2.02-11.06Z"/>
    <path class="cls-1" d="m151.71,319.06l1.19-11.18.25.03,6.85,9.4.91-8.57,1.15.12-1.19,11.18-.26-.03-6.8-9.29-.9,8.47-1.21-.13Z"/>
    <path class="cls-1" d="m163.35,310l.04-1.1,6.42.24-.04,1.1-2.61-.1-.38,10.14-1.2-.05.38-10.14-2.61-.1Z"/>
    <path class="cls-1" d="m176.74,308.73c1.78-.07,3.28.44,4.52,1.53,1.24,1.09,1.89,2.46,1.96,4.12.06,1.64-.48,3.06-1.63,4.26-1.15,1.19-2.58,1.82-4.3,1.89-1.74.07-3.23-.44-4.47-1.54-1.24-1.09-1.89-2.45-1.96-4.07-.04-1.08.19-2.09.7-3.03.51-.94,1.22-1.69,2.14-2.25.92-.56,1.93-.86,3.02-.9Zm.09,1.09c-.87.03-1.68.28-2.44.75-.76.46-1.34,1.07-1.75,1.82-.41.75-.59,1.58-.56,2.48.05,1.34.58,2.44,1.58,3.33,1,.88,2.18,1.3,3.55,1.24.91-.04,1.74-.28,2.5-.73.76-.45,1.34-1.06,1.74-1.81.4-.75.59-1.57.56-2.47-.04-.89-.28-1.69-.75-2.39-.46-.7-1.09-1.26-1.9-1.66-.8-.4-1.65-.59-2.53-.55Z"/>
    <path class="cls-1" d="m189.29,307.98l2.31-.37c1.32-.21,2.22-.3,2.7-.27.69.05,1.28.28,1.78.7.5.42.81.99.93,1.73.12.74.01,1.38-.32,1.93-.33.55-.84.96-1.54,1.24-.51.21-1.48.42-2.91.66l-.83.13.84,5.16-1.16.19-1.8-11.1Zm1.33.9l.61,3.77,1.96-.29c.79-.13,1.36-.29,1.71-.49.34-.2.6-.47.76-.81.16-.34.21-.71.15-1.09-.06-.37-.22-.69-.48-.97-.26-.28-.57-.45-.94-.52s-.94-.05-1.72.08l-2.05.33Z"/>
    <path class="cls-1" d="m198.52,306.38l6.55-1.53.25,1.07-5.4,1.26.8,3.43,5.36-1.25.25,1.07-5.36,1.25,1,4.3,5.36-1.25.25,1.07-6.5,1.51-2.55-10.95Z"/>
    <path class="cls-1" d="m206.76,304.38l2.23-.69c1.24-.38,2.1-.59,2.58-.63.71-.06,1.35.09,1.91.44.56.35.95.88,1.17,1.58.18.59.2,1.14.05,1.68-.15.53-.46.99-.92,1.38-.46.39-1.16.73-2.1,1.03l5.57,3.75-1.39.43-5.57-3.75-.63.19,1.54,4.99-1.12.35-3.31-10.75Zm1.44.71l1.12,3.65,1.94-.58c.75-.23,1.28-.47,1.6-.72.32-.25.53-.55.64-.91.11-.36.11-.73,0-1.1-.11-.36-.31-.66-.61-.89-.29-.23-.63-.36-1-.38s-.94.08-1.71.32l-1.98.61Z"/>
    <path class="cls-1" d="m218,310.44l.72-.89c1.1.9,2.08,1.19,2.94.86.37-.14.68-.36.94-.64.26-.29.42-.6.48-.94.06-.34.03-.67-.08-.97-.14-.35-.39-.65-.77-.89-.52-.34-1.36-.66-2.52-.97-1.17-.31-1.92-.57-2.26-.78-.58-.35-.98-.81-1.2-1.38-.18-.46-.22-.92-.14-1.38s.29-.88.62-1.26c.33-.38.74-.66,1.23-.84.52-.2,1.05-.26,1.59-.19.54.07,1.19.34,1.94.81l-.64.99c-.61-.37-1.1-.58-1.45-.63-.35-.06-.7-.02-1.04.11-.44.17-.75.44-.94.8-.18.36-.2.73-.06,1.11.09.23.22.43.4.61.18.18.45.34.81.49.2.08.8.25,1.82.51,1.21.31,2.08.65,2.64,1.04.55.39.93.85,1.13,1.38.29.76.24,1.54-.14,2.33-.39.79-1.01,1.35-1.88,1.69-.66.25-1.33.32-2,.18-.67-.13-1.39-.51-2.15-1.14Z"/>
    <path class="cls-1" d="m228.02,296.02c1.6-.77,3.18-.91,4.76-.41,1.57.5,2.72,1.5,3.44,3,.72,1.48.79,3,.21,4.55-.58,1.55-1.64,2.7-3.18,3.45-1.57.76-3.14.88-4.71.38-1.58-.51-2.72-1.49-3.42-2.95-.47-.97-.66-1.99-.57-3.06.09-1.07.44-2.04,1.06-2.92s1.42-1.56,2.41-2.04Zm.52.96c-.78.38-1.43.93-1.94,1.66-.51.73-.8,1.52-.88,2.37-.07.85.09,1.68.48,2.5.58,1.2,1.51,2.01,2.78,2.42,1.27.41,2.52.31,3.75-.28.82-.4,1.49-.95,2-1.67.51-.72.8-1.5.87-2.35s-.09-1.68-.48-2.49c-.39-.8-.94-1.44-1.64-1.9-.71-.46-1.51-.71-2.4-.76-.9-.05-1.74.12-2.54.51Z"/>
    <path class="cls-1" d="m241.29,302.14l-5.88-9.59.22-.13,11.16,3.27-4.51-7.35.99-.61,5.88,9.59-.22.14-11.05-3.21,4.46,7.26-1.03.63Z"/>
    <path class="cls-1" d="m249.12,283.49l11.12,5.72-1.01.76-3.7-1.86-4.04,3.03.76,4.06-1.05.78-2.31-12.32.23-.17Zm1.31,2l.83,4.46,3.21-2.4-4.04-2.06Z"/>
    <path class="cls-1" d="m254.56,279.19l.88-.77,6.69,7.65,3.4-2.97.71.82-4.28,3.74-7.41-8.46Z"/>
  </g>
</svg>