<svg xmlns="http://www.w3.org/2000/svg" version="1.1" xmlns:xlink="http://www.w3.org/1999/xlink" xmlns:svgjs="http://svgjs.dev/svgjs" width="1920" height="1080" preserveAspectRatio="none" viewBox="0 0 1920 1080"><g mask="url(&quot;#SvgjsMask1187&quot;)" fill="none"><rect width="1920" height="1080" x="0" y="0" fill="rgba(217, 124, 227, 1)"></rect><path d="M0,475.782C102.366,463.298,205.485,504.916,303.079,471.6C417.206,432.64,543.603,380.796,596.172,272.263C648.863,163.479,618.237,29.245,571.29,-82.139C529.981,-180.148,435.828,-239.296,352.63,-305.555C283.548,-360.572,210.954,-405.518,127.821,-435.319C40.156,-466.745,-51.145,-504.278,-141.758,-482.782C-234.136,-460.867,-292.376,-376.73,-366.932,-317.948C-461.222,-243.607,-618.288,-210.177,-637.785,-91.7C-657.181,26.164,-501.434,97.694,-453.325,207.027C-404.183,318.708,-459.584,489.586,-354.627,551.81C-248.484,614.737,-122.486,490.72,0,475.782" fill="#c842d7"></path><path d="M1920 1497.172C2028.187 1501.995 2131.732 1607.0810000000001 2231.168 1564.186 2328.896 1522.028 2355.665 1395.355 2389.754 1294.529 2421.116 1201.771 2439.435 1104.023 2419.135 1008.235 2399.583 915.977 2351.136 829.492 2278.4610000000002 769.3910000000001 2211.201 713.768 2119.886 708.1030000000001 2034.477 690.1279999999999 1955.809 673.571 1879.103 659.8679999999999 1799.179 668.521 1705.473 678.6659999999999 1608.714 688.6469999999999 1532.753 744.4490000000001 1447.109 807.364 1358.5549999999998 892.155 1350.508 998.119 1342.4859999999999 1103.751 1444.212 1180.938 1492.441 1275.259 1537.997 1364.3519999999999 1537.35 1491.1190000000001 1626.165 1537.216 1715.716 1583.695 1819.206 1492.679 1920 1497.172" fill="#eab6ef"></path></g><defs><mask id="SvgjsMask1187"><rect width="1920" height="1080" fill="#ffffff"></rect></mask></defs></svg>