<svg xmlns="http://www.w3.org/2000/svg" version="1.1" xmlns:xlink="http://www.w3.org/1999/xlink" xmlns:svgjs="http://svgjs.dev/svgjs" width="1440" height="560" preserveAspectRatio="none" viewBox="0 0 1440 560"><g mask="url(&quot;#SvgjsMask3081&quot;)" fill="none"><rect width="1440" height="560" x="0" y="0" fill="rgba(217, 124, 227, 1)"></rect><path d="M1440 0L1217.2 0L1440 158.82z" fill="rgba(255, 255, 255, .1)"></path><path d="M1217.2 0L1440 158.82L1440 235.81L606.2900000000001 0z" fill="rgba(255, 255, 255, .075)"></path><path d="M606.29 0L1440 235.81L1440 299.11L481.91999999999996 0z" fill="rgba(255, 255, 255, .05)"></path><path d="M481.91999999999996 0L1440 299.11L1440 329.97L388.12999999999994 0z" fill="rgba(255, 255, 255, .025)"></path><path d="M0 560L675.3 560L0 438.97z" fill="rgba(0, 0, 0, .1)"></path><path d="M0 438.97L675.3 560L1091.74 560L0 369.03000000000003z" fill="rgba(0, 0, 0, .075)"></path><path d="M0 369.03L1091.74 560L1144.74 560L0 329.02z" fill="rgba(0, 0, 0, .05)"></path><path d="M0 329.02L1144.74 560L1172.47 560L0 201.47999999999996z" fill="rgba(0, 0, 0, .025)"></path></g><defs><mask id="SvgjsMask3081"><rect width="1440" height="560" fill="#ffffff"></rect></mask></defs></svg>